<mxfile host="app.diagrams.net" modified="2022-05-03T14:48:56.748Z" agent="5.0 (Macintosh; Intel Mac OS X 10_15_7) AppleWebKit/605.1.15 (KHTML, like Gecko) Version/15.3 Safari/605.1.15" etag="zL9WscA3wVeE3t0Zxguk" version="17.4.6" type="github">
  <diagram id="KGP9o2OBMH4BxrTi7sAd" name="Page-1">
    <mxGraphModel dx="786" dy="520" grid="1" gridSize="10" guides="1" tooltips="1" connect="1" arrows="1" fold="1" page="1" pageScale="1" pageWidth="827" pageHeight="1169" math="0" shadow="0">
      <root>
        <mxCell id="0" />
        <mxCell id="1" parent="0" />
        <mxCell id="o1fZCS8-2C5qT1qgqAJa-1" value="Data Warehouse" style="shape=cylinder3;whiteSpace=wrap;html=1;boundedLbl=1;backgroundOutline=1;size=15;" vertex="1" parent="1">
          <mxGeometry x="370" y="150" width="110" height="160" as="geometry" />
        </mxCell>
        <mxCell id="o1fZCS8-2C5qT1qgqAJa-15" style="edgeStyle=orthogonalEdgeStyle;rounded=0;orthogonalLoop=1;jettySize=auto;html=1;exitX=1;exitY=0.5;exitDx=0;exitDy=0;entryX=0;entryY=0;entryDx=0;entryDy=15;entryPerimeter=0;" edge="1" parent="1" source="o1fZCS8-2C5qT1qgqAJa-2" target="o1fZCS8-2C5qT1qgqAJa-1">
          <mxGeometry relative="1" as="geometry" />
        </mxCell>
        <mxCell id="o1fZCS8-2C5qT1qgqAJa-2" value="Ready Meals Kitchen" style="rounded=1;whiteSpace=wrap;html=1;" vertex="1" parent="1">
          <mxGeometry x="180" y="120" width="120" height="60" as="geometry" />
        </mxCell>
        <mxCell id="o1fZCS8-2C5qT1qgqAJa-10" style="edgeStyle=orthogonalEdgeStyle;rounded=0;orthogonalLoop=1;jettySize=auto;html=1;exitX=1;exitY=0.5;exitDx=0;exitDy=0;entryX=0.5;entryY=0;entryDx=0;entryDy=0;entryPerimeter=0;" edge="1" parent="1" source="o1fZCS8-2C5qT1qgqAJa-3" target="o1fZCS8-2C5qT1qgqAJa-1">
          <mxGeometry relative="1" as="geometry" />
        </mxCell>
        <mxCell id="o1fZCS8-2C5qT1qgqAJa-3" value="Ingredients Warehouse" style="rounded=1;whiteSpace=wrap;html=1;" vertex="1" parent="1">
          <mxGeometry x="180" y="40" width="120" height="60" as="geometry" />
        </mxCell>
        <mxCell id="o1fZCS8-2C5qT1qgqAJa-5" value="Google Analytics" style="rounded=1;whiteSpace=wrap;html=1;" vertex="1" parent="1">
          <mxGeometry x="180" y="250" width="120" height="60" as="geometry" />
        </mxCell>
        <mxCell id="o1fZCS8-2C5qT1qgqAJa-14" style="edgeStyle=orthogonalEdgeStyle;rounded=0;orthogonalLoop=1;jettySize=auto;html=1;exitX=1;exitY=0.5;exitDx=0;exitDy=0;entryX=0.009;entryY=0.444;entryDx=0;entryDy=0;entryPerimeter=0;" edge="1" parent="1" source="o1fZCS8-2C5qT1qgqAJa-6" target="o1fZCS8-2C5qT1qgqAJa-1">
          <mxGeometry relative="1" as="geometry" />
        </mxCell>
        <mxCell id="o1fZCS8-2C5qT1qgqAJa-6" value="CRM" style="rounded=1;whiteSpace=wrap;html=1;" vertex="1" parent="1">
          <mxGeometry x="180" y="200" width="120" height="41" as="geometry" />
        </mxCell>
        <mxCell id="o1fZCS8-2C5qT1qgqAJa-7" style="edgeStyle=orthogonalEdgeStyle;rounded=0;orthogonalLoop=1;jettySize=auto;html=1;exitX=1;exitY=0.5;exitDx=0;exitDy=0;" edge="1" parent="1" source="o1fZCS8-2C5qT1qgqAJa-5">
          <mxGeometry relative="1" as="geometry">
            <mxPoint x="370" y="280" as="targetPoint" />
            <mxPoint x="350" y="265" as="sourcePoint" />
            <Array as="points">
              <mxPoint x="370" y="280" />
            </Array>
          </mxGeometry>
        </mxCell>
        <mxCell id="o1fZCS8-2C5qT1qgqAJa-25" style="edgeStyle=orthogonalEdgeStyle;rounded=0;orthogonalLoop=1;jettySize=auto;html=1;exitX=0;exitY=0.5;exitDx=0;exitDy=0;entryX=1;entryY=0;entryDx=0;entryDy=112.5;entryPerimeter=0;" edge="1" parent="1" source="o1fZCS8-2C5qT1qgqAJa-17" target="o1fZCS8-2C5qT1qgqAJa-1">
          <mxGeometry relative="1" as="geometry" />
        </mxCell>
        <mxCell id="o1fZCS8-2C5qT1qgqAJa-17" value="Excel" style="rounded=1;whiteSpace=wrap;html=1;" vertex="1" parent="1">
          <mxGeometry x="560" y="230" width="120" height="60" as="geometry" />
        </mxCell>
        <mxCell id="o1fZCS8-2C5qT1qgqAJa-19" style="edgeStyle=orthogonalEdgeStyle;rounded=0;orthogonalLoop=1;jettySize=auto;html=1;exitX=0;exitY=0.5;exitDx=0;exitDy=0;entryX=1.009;entryY=0.188;entryDx=0;entryDy=0;entryPerimeter=0;" edge="1" parent="1" source="o1fZCS8-2C5qT1qgqAJa-18" target="o1fZCS8-2C5qT1qgqAJa-1">
          <mxGeometry relative="1" as="geometry" />
        </mxCell>
        <mxCell id="o1fZCS8-2C5qT1qgqAJa-18" value="Tableau" style="rounded=1;whiteSpace=wrap;html=1;" vertex="1" parent="1">
          <mxGeometry x="560" y="150" width="120" height="60" as="geometry" />
        </mxCell>
      </root>
    </mxGraphModel>
  </diagram>
</mxfile>
